# xmcd
#
# Track frame offsets:
#	150
#	18620
#	40155
#	65565
#	83460
#	107987
#	134815
#	157135
#
# Disc length: 2436 seconds
#
# Revision: 1
# Processed by: cddbd v1.5.2PL0 Copyright (c) Steve Scherf et al.
# Submitted via: EasyCDDAExtractor 16.0.9.1
#
DISCID=6e098208
DTITLE=Fank aguiar - Um Show de Forró
DYEAR=1900
DGENRE=Forró
TTITLE0=casado tambem namora-to bebendo,tou pagando-pra comer baton
TTITLE1=vem dançar forró-bucho d'agua-cabra desmantelado
TTITLE2=chifrudim-casa separa-rapariga
TTITLE3=moto táxi
TTITLE4=solidão de um caminhoneiro-noda de caju-menina de salão
TTITLE5=seis cordas-diz que me ama prra! -três socó
TTITLE6=só no nane nane-namoro de criança- dormindo no sofá
TTITLE7=minha verdade- eu,você e o amor
EXTD=
EXTT0=
EXTT1=
EXTT2=
EXTT3=
EXTT4=
EXTT5=
EXTT6=
EXTT7=
PLAYORDER=
